PathFileType	4	(X/Y/Z)	S00_P00_T01_BalancingTrial_0-100.trc
DataRate	CameraRate	NumFrames	NumMarkers	Units	OrigDataRate	OrigDataStartFrame	OrigNumFrames
60	60	9	21	m	60	87	100
Frame#	Time	RHip			RKnee			RAnkle			RBigToe			RSmallToe			RHeel			LHip			LKnee			LAnkle			LBigToe			LSmallToe			LHeel			Neck			Head			Nose			RShoulder			RElbow			RWrist			LShoulder			LElbow			LWrist		
		X1	Y1	Z1	X2	Y2	Z2	X3	Y3	Z3	X4	Y4	Z4	X5	Y5	Z5	X6	Y6	Z6	X7	Y7	Z7	X8	Y8	Z8	X9	Y9	Z9	X10	Y10	Z10	X11	Y11	Z11	X12	Y12	Z12	X13	Y13	Z13	X14	Y14	Z14	X15	Y15	Z15	X16	Y16	Z16	X17	Y17	Z17	X18	Y18	Z18	X19	Y19	Z19	X20	Y20	Z20	X21	Y21	Z21
88	1.4666666666666666	-0.07591964366243684	0.907302683596034	-0.7154237763823991	-0.09018962981874212	0.503067729501523	-0.6909072194631908	-0.05270427300575552	0.14182750436196218	-0.7457354354550818	-0.055150732301561776	0.038945086745825155	-0.6018955848806465	-0.09152246038387546	0.03625371750534868	-0.641595027432748	-0.03439076618574306	0.1092846151818978	-0.7977730047818725	0.1319630820013949	0.8939907042719695	-0.73598374989587	0.08264924273379295	0.5082780949852115	-0.686087747773283	0.03614559807709747	0.23423295872354094	-0.9462343208872285	0.041472425169434966	0.10843455415289366	-0.8418004992052189	0.07317433848961231	0.126172305591421	-0.9069986135218333	0.039926217223528085	0.2239669082715199	-0.9907971586720025	-0.04159312632979299	1.419154368174099	-0.6139886301311894	-0.06750536119214658	1.6360343056091897	-0.4084698458302356	-0.044241855738518784	1.4872233459609705	-0.4299196999538983	-0.2052955420858023	1.383922567881463	-0.6366963430014667	-0.40679880263363366	1.209722107007923	-0.6846612604247587	-0.5075686435434111	1.2239551855713824	-0.4319861920464881	0.11654236005578184	1.4293479079590004	-0.7134727616893913	0.35978501257330436	1.3957422217588271	-0.714587690693096	0.6016282899292645	1.3484212022182704	-0.6897593967203003
89	1.4833333333333334	-0.07165417854548922	0.9066583702266026	-0.7100678941375697	-0.09071256170931241	0.5032353091057528	-0.6879999021170871	-0.052182820363403805	0.1441760595523618	-0.7399326032967867	-0.05515679879877791	0.04007844959055252	-0.6007595878139316	-0.09380127906587041	0.03799086450029026	-0.6439669969985118	-0.03355319246340521	0.11181643871296786	-0.797017741837866	0.13295272034757014	0.8970367550254794	-0.7388691858669889	0.0872308451805084	0.5126072129140006	-0.664294101989794	0.040862821149493175	0.22779686368763072	-0.9142288166498732	0.04964032053890608	0.11038593628753726	-0.8026095491656896	0.08435884934046962	0.12595504932684126	-0.869685274406459	0.0472230624364889	0.21662735060768845	-0.9529444534502062	-0.04966658861590973	1.4172864222511254	-0.6009219782373548	-0.08522387442260759	1.630760360614937	-0.3942912720027019	-0.057236373510903334	1.4821690614020198	-0.41591782696662133	-0.21021717907619208	1.3742817076021514	-0.638191016068843	-0.4062712042023914	1.1951181676107867	-0.677650296686569	-0.5181083622123269	1.202138688536786	-0.4318559119948101	0.11672689750199751	1.4329241297444173	-0.6818333996369241	0.3521776606969624	1.4147495236508552	-0.7004893864367034	0.5934944725893919	1.3912270490873102	-0.6643388721968732
90	1.5	-0.06856171033016763	0.9060046693731176	-0.7069287821217539	-0.09108279566454087	0.5037096248734916	-0.6831383309221103	-0.05129570306587711	0.14553864660608942	-0.7331527507579877	-0.055495409265878995	0.04164118995731411	-0.5997011355854209	-0.09603935255484869	0.03985254750721504	-0.6462171759716736	-0.0325051268007902	0.1122969884269376	-0.7956138924385361	0.13126529854472269	0.9013419432711145	-0.7464129343475602	0.09071398904067576	0.5163842753512574	-0.6455316074891944	0.04638635027789321	0.22095756346332637	-0.8802187473927972	0.05670575498790467	0.11100512213428868	-0.7613886337634406	0.09315134250833022	0.12461456249706594	-0.824567634442951	0.053523682928290246	0.20703828291424908	-0.9198930875160891	-0.05672321107307674	1.4145651888602568	-0.5895420196124451	-0.10107339847893987	1.6249529518026244	-0.38167574478643274	-0.06807867669075535	1.475553653793725	-0.40448791779387255	-0.21347092093183706	1.3657061177974152	-0.638534190156285	-0.4043334865819566	1.181392524268273	-0.6698484626497986	-0.5250440276277903	1.180420076475151	-0.4343091745462245	0.11756223582559158	1.4350960573492837	-0.6516555964769938	0.3451422625599999	1.4307610426363597	-0.6938962024646192	0.5807144080195005	1.4299314833724022	-0.6395734615572548
91	1.5166666666666666	-0.06620004665336701	0.9055590744484195	-0.705176915544317	-0.09124617970048206	0.5040247645479993	-0.6768392123863705	-0.050080382339066684	0.1460444214562017	-0.7266632831510134	-0.05639070451501237	0.04330107178903461	-0.5993848432539434	-0.09815668877418104	0.04170741744894045	-0.648456664654152	-0.031244303125648736	0.11111042511368223	-0.7943234974532114	0.1286111957516065	0.9060400804470581	-0.7542647047266655	0.09317277470488669	0.5197108726523385	-0.6286566205072239	0.053204329813463055	0.21510962256197821	-0.8438208285170969	0.062278634029324216	0.11100000111548852	-0.7181917307921492	0.09947289336219581	0.1232803364459354	-0.7736246730138473	0.05938082131247856	0.19676366089163866	-0.8897252912283561	-0.0630236827029055	1.4112758619751897	-0.5792475809319657	-0.11452707780586516	1.6191308370910882	-0.37052016522103254	-0.07681940124170207	1.4681278774178543	-0.39527806636241947	-0.21568955248565314	1.3586499024502325	-0.637329623681066	-0.40134246122902495	1.168975513342017	-0.6625990212430188	-0.5285285526056264	1.1590352153537222	-0.43720542604327123	0.11686758078472483	1.43589144322298	-0.6284691424323514	0.34089421958773763	1.4438819171855852	-0.6893183848807188	0.565951545582577	1.4632000693285492	-0.6141526415702876
92	1.5333333333333334	-0.06442149087602453	0.9054401130926854	-0.703763139152763	-0.09119964092203481	0.5042468746915978	-0.6696062286981265	-0.04866498857669134	0.1459400801095315	-0.7217068966119958	-0.05793909301629246	0.04471476052586113	-0.6003481948386622	-0.09986727884449782	0.04328234049160554	-0.6505583234831308	-0.029754110435373796	0.10893927014967396	-0.7934747017553658	0.12678136293905498	0.9100094934016912	-0.7574907151349772	0.09445955480255751	0.5228495190367598	-0.6132914105342061	0.060679789813207236	0.21018469167849438	-0.805287261847881	0.06613228793438432	0.11099582092148201	-0.6732125396076156	0.1034344930256303	0.12285094656929879	-0.7190098073749024	0.06508832653933493	0.18655210463614275	-0.8584140295634516	-0.0686481295201596	1.4078682222516608	-0.5695682391543658	-0.12522066802037987	1.6138445610447778	-0.36058271855664303	-0.08396105526716645	1.4609734086443706	-0.38718908964406945	-0.21741222294775156	1.3531713412930872	-0.6349349915762863	-0.3977924515839195	1.1581731889242337	-0.6570274301236089	-0.529200700022184	1.1385877160513036	-0.4390306577478055	0.11346509807045828	1.435654642482991	-0.6145859544653088	0.34076033439218567	1.4544749635174854	-0.6820646584471615	0.5520326570420676	1.4901725433876647	-0.5864703244968547
93	1.55	-0.06333750758516105	0.9054799481818046	-0.7019548587700571	-0.09094165124424151	0.5047718901904802	-0.6617968172647053	-0.04736296049501756	0.14543236660552344	-0.7190599468271297	-0.06018046517285427	0.04562984075581726	-0.6025234777375628	-0.10093121366847425	0.0442554072307421	-0.6523079816326813	-0.02812814597736668	0.10641644418132105	-0.7928216545220885	0.12632880129942345	0.9128271432362874	-0.7544681223526183	0.0943773131263324	0.5260315279102001	-0.599331733373901	0.0676353764415052	0.20500550631556042	-0.7652801903447708	0.06821991261565147	0.11145805254043348	-0.6271168714541455	0.10533995287600989	0.12365210023035768	-0.6630187623434887	0.07043385433374544	0.17643958534441956	-0.8228846280183093	-0.07357171840433564	1.4049100361628086	-0.5603880174759907	-0.13318311340149103	1.6096226451564004	-0.3516589978465029	-0.09019512773030457	1.4551245830976585	-0.3792907862958532	-0.2188771010108727	1.3491823512194627	-0.6318018766054183	-0.3942269637743582	1.1492254174027472	-0.6536694823759748	-0.5278296620838338	1.119885031625635	-0.439624503252012	0.10787435829106577	1.4350671903880854	-0.6075357248851562	0.344102099460172	1.4630119921603761	-0.6710048245386669	0.5397385486651826	1.5110164016999432	-0.556975412826203
94	1.5666666666666669	-0.06302098691644029	0.9053137453406902	-0.699540390603393	-0.09023661455220479	0.5060945340992326	-0.6533123518909659	-0.04652756635426689	0.14467120133591693	-0.7188157296576472	-0.06299855218175239	0.04603855270250303	-0.6052787443509038	-0.10132646442238373	0.04457858662297597	-0.6536096584040556	-0.026623994884103008	0.10402034127887028	-0.7919890456284493	0.12631314457452877	0.9150093228326875	-0.7479157778602432	0.09295780544056224	0.529307340874829	-0.586268432535298	0.07318516147238745	0.1984203618501516	-0.7248660887147623	0.0686509511660892	0.11265453531810593	-0.5809220438637962	0.10578010297272333	0.12527496396410104	-0.6084540594328104	0.07507029571387276	0.16613813983761486	-0.782996719442806	-0.0777577572035503	1.4029421680408687	-0.5518408949432286	-0.13890450133186752	1.6068360856633928	-0.34359202818561757	-0.09607946277157998	1.4512811795416791	-0.37106951126589977	-0.22007097628403938	1.3466721416029728	-0.628065404035898	-0.3910019948596122	1.1422622483674927	-0.6523724261195446	-0.525133367075536	1.1036875289277694	-0.4397836977448303	0.10162339227659982	1.4350019267166823	-0.6025348445096442	0.3486994075729098	1.4697643488795606	-0.6575947507563534	0.528212532894096	1.5265028471843882	-0.5275396022721097
95	1.5833333333333333	-0.06330227642311226	0.9047157300926822	-0.6964769357554308	-0.0886810818805832	0.5084642753577996	-0.6438367952020962	-0.04630099533729478	0.14383942446018189	-0.7203546366996266	-0.06588317985345982	0.046259087356071586	-0.6076730382265452	-0.10122016724499158	0.04457331275960884	-0.6545250645018227	-0.02555500109442813	0.10208766740584342	-0.7908705455043822	0.1256662139770099	0.9172093690886554	-0.7410245437735984	0.09058777233286518	0.5326244889812591	-0.5733538833971679	0.0770280796305318	0.19036367767936477	-0.6855141696453929	0.06750824512026138	0.11468845630790535	-0.5358223722556161	0.10543132303369958	0.12655356494707068	-0.5583918239111044	0.07876389883800149	0.15557681107888188	-0.7413972921830474	-0.0812010245612735	1.402282751345841	-0.544040179619622	-0.1431336571835119	1.6055501639306191	-0.33628169261486707	-0.101732719724024	1.449626650297625	-0.36239243648894953	-0.22085494658375024	1.3457371254802513	-0.6234062631085195	-0.38820833136351457	1.1372211067252096	-0.6526401311197885	-0.5218157957594637	1.0905853748430798	-0.44020217379497545	0.09619808956074548	1.4361285770692374	-0.5956224302726193	0.35203691728121794	1.474722640720211	-0.6438968346413864	0.5165565268646356	1.537271504800856	-0.4997208026256915
96	1.6	-0.06383275862137812	0.9038629911340802	-0.6925904840359142	-0.08634490620594151	0.5117486109800828	-0.6335216034983127	-0.04661899410138329	0.1431538242257837	-0.7226392237347539	-0.06795878416475534	0.04663651419799581	-0.6087461200275462	-0.10083939245355072	0.04457318651498311	-0.655192806343133	-0.025111737918039775	0.10075413474770331	-0.7895108353691677	0.12437749890269034	0.9195505083866029	-0.7341124694558936	0.08795008273026135	0.535910596842698	-0.5599420489825214	0.07928557235585156	0.18195265387203136	-0.6487326460790146	0.06456717263330454	0.11763561003962193	-0.4928521602526447	0.104601751114863	0.12647539112748912	-0.5148369126286779	0.08130380485809385	0.1453545394860082	-0.7013380062633838	-0.08400132277870478	1.402877760495474	-0.536824133781501	-0.14660636268829313	1.6055493531909784	-0.3296531872239565	-0.10677508367278069	1.4498079058373718	-0.3537113078110901	-0.22108157448963628	1.3464718266492692	-0.617088659983565	-0.385750429764318	1.133976860216792	-0.6538826555950453	-0.5185647620671681	1.08092484601089	-0.44117794438688096	0.0925468406690828	1.4387118384964153	-0.5846487319753442	0.35295669371971466	1.4778128256628795	-0.6311805573382941	0.5045134266262891	1.543903981103568	-0.47426755617804556
